<svg version="1.1" viewBox="0.0 0.0 960.0 377.9527559055118" fill="none" stroke="none" stroke-linecap="square" stroke-miterlimit="10" xmlns:xlink="http://www.w3.org/1999/xlink" xmlns="http://www.w3.org/2000/svg"><clipPath id="p.0"><path d="m0 0l960.0 0l0 377.95276l-960.0 0l0 -377.95276z" clip-rule="nonzero"/></clipPath><g clip-path="url(#p.0)"><path fill="#000000" fill-opacity="0.0" d="m0 0l960.0 0l0 377.95276l-960.0 0z" fill-rule="evenodd"/><path fill="#000000" fill-opacity="0.0" d="m0.010498688 0l960.0 0l0 377.95276l-960.0 0z" fill-rule="evenodd"/><path fill="#ffffff" d="m14.91034 282.85638l71.828125 -187.0625l26.671875 0l76.5625 187.0625l-28.203125 0l-21.8125 -56.65625l-78.21875 0l-20.546875 56.65625l-26.28125 0zm53.96875 -76.8125l63.421875 0l-19.53125 -51.8125q-8.921875 -23.609375 -13.265625 -38.78125q-3.578125 17.984375 -10.078125 35.71875l-20.546875 54.875zm138.06944 -83.84375l0 -26.40625l22.96875 0l0 26.40625l-22.96875 0zm0 160.65625l0 -135.51562l22.96875 0l0 135.51562l-22.96875 0zm57.668106 0l0 -135.51562l20.671875 0l0 20.546875q7.90625 -14.421875 14.609375 -19.015625q6.703125 -4.59375 14.734375 -4.59375q11.625 0 23.609375 7.40625l-7.90625 21.3125q-8.421875 -4.984375 -16.84375 -4.984375q-7.53125 0 -13.53125 4.53125q-6.0 4.53125 -8.546875 12.5625q-3.828125 12.25 -3.828125 26.796875l0 70.953125l-22.96875 0zm86.77432 0l0 -187.0625l22.96875 0l0 187.0625l-22.96875 0zm58.69937 -160.65625l0 -26.40625l22.96875 0l0 26.40625l-22.96875 0zm0 160.65625l0 -135.51562l22.96875 0l0 135.51562l-22.96875 0zm57.91812 0l0 -135.51562l20.671875 0l0 19.265625q14.9375 -22.328125 43.140594 -22.328125q12.25 0 22.515625 4.40625q10.28125 4.40625 15.375 11.546875q5.109375 7.140625 7.15625 16.96875q1.265625 6.375 1.265625 22.328125l0 83.328125l-22.96875 0l0 -82.4375q0 -14.03125 -2.6875 -20.984375q-2.671875 -6.953125 -9.5 -11.09375q-6.828125 -4.15625 -16.015625 -4.15625q-14.671875 0 -25.328094 9.3125q-10.65625 9.3125 -10.65625 35.34375l0 74.015625l-22.96875 0zm238.11954 -43.640625l23.71875 2.9375q-5.609375 20.796875 -20.796875 32.28125q-15.171875 11.484375 -38.78125 11.484375q-29.734375 0 -47.15625 -18.3125q-17.421875 -18.3125 -17.421875 -51.359375q0 -34.203125 17.609375 -53.078125q17.609375 -18.890625 45.6875 -18.890625q27.1875 0 44.40625 18.5q17.21875 18.5 17.21875 52.0625q0 2.046875 -0.125 6.125l-101.0625 0q1.28125 22.328125 12.640625 34.203125q11.359375 11.859375 28.328125 11.859375q12.625 0 21.5625 -6.625q8.9375 -6.640625 14.171875 -21.1875zm-75.421875 -37.125l75.671875 0q-1.53125 -17.109375 -8.671875 -25.65625q-10.984375 -13.265625 -28.46875 -13.265625q-15.8125 0 -26.59375 10.59375q-10.78125 10.578125 -11.9375 28.328125zm118.79138 40.3125l22.71875 -3.5625q1.921875 13.640625 10.65625 20.921875q8.734375 7.265625 24.4375 7.265625q15.828125 0 23.484375 -6.4375q7.65625 -6.4375 7.65625 -15.125q0 -7.78125 -6.765625 -12.25q-4.71875 -3.0625 -23.484375 -7.78125q-25.265625 -6.375 -35.03125 -11.03125q-9.75 -4.65625 -14.796875 -12.890625q-5.046875 -8.234375 -5.046875 -18.1875q0 -9.0625 4.140625 -16.78125q4.15625 -7.71875 11.3125 -12.828125q5.359375 -3.953125 14.609375 -6.6875q9.25 -2.75 19.84375 -2.75q15.9375 0 28.0 4.59375q12.0625 4.59375 17.796875 12.453125q5.75 7.84375 7.921875 20.984375l-22.46875 3.0625q-1.53125 -10.46875 -8.875 -16.328125q-7.328125 -5.875 -20.71875 -5.875q-15.828125 0 -22.59375 5.234375q-6.765625 5.21875 -6.765625 12.25q0 4.453125 2.8125 8.03125q2.8125 3.703125 8.8125 6.125q3.4375 1.28125 20.28125 5.875q24.375 6.5 34.0 10.65625q9.640625 4.140625 15.125 12.0625q5.484375 7.90625 5.484375 19.640625q0 11.484375 -6.703125 21.640625q-6.6875 10.140625 -19.328125 15.6875q-12.625 5.546875 -28.578125 5.546875q-26.40625 0 -40.265625 -10.96875q-13.84375 -10.984375 -17.671875 -32.546875zm146.36719 40.453125l0 -26.15625l26.15625 0l0 26.15625l-26.15625 0z" fill-rule="nonzero"/></g></svg>